<?xml version="1.0" standalone="no"?>
<!DOCTYPE svg PUBLIC "-//W3C//DTD SVG 20010904//EN"
 "http://www.w3.org/TR/2001/REC-SVG-20010904/DTD/svg10.dtd">
<svg version="1.0" xmlns="http://www.w3.org/2000/svg"
 width="1360.000000pt" height="1360.000000pt" viewBox="0 0 1360.000000 1360.000000"
 preserveAspectRatio="xMidYMid meet">
<metadata>
Created by potrace 1.11, written by Peter Selinger 2001-2013
</metadata>
<g transform="translate(0.000000,1360.000000) scale(0.100000,-0.100000)"
fill="#000000" stroke="none">
<path d="M11060 10980 c0 -3 -27 -41 -59 -85 -125 -168 -156 -210 -164 -220
-4 -5 -46 -62 -92 -125 -46 -63 -88 -119 -93 -125 -4 -5 -19 -26 -32 -45 -14
-19 -27 -37 -30 -40 -3 -3 -23 -30 -45 -60 -22 -30 -45 -61 -52 -67 -6 -7 -26
-35 -44 -63 -18 -27 -36 -50 -41 -50 -4 0 -8 -4 -8 -10 0 -5 -7 -18 -15 -27
-15 -19 -215 -289 -282 -381 -21 -29 -44 -59 -50 -67 -7 -7 -13 -18 -13 -24 0
-6 -3 -11 -8 -11 -4 0 -28 -28 -52 -62 -66 -91 -258 -351 -273 -368 -6 -8 -34
-46 -62 -85 -27 -38 -53 -74 -58 -80 -4 -5 -60 -80 -123 -165 -132 -178 -136
-185 -167 -225 -13 -16 -45 -59 -71 -95 -26 -36 -60 -83 -77 -105 -16 -22 -36
-49 -44 -60 -25 -35 -184 -250 -193 -260 -4 -5 -9 -13 -10 -17 -1 -5 -10 -16
-19 -26 -10 -10 -58 -74 -108 -142 -49 -68 -95 -129 -102 -136 -7 -7 -13 -15
-13 -17 0 -8 -183 -252 -192 -255 -4 -2 -8 -9 -8 -16 0 -7 -10 -23 -22 -36
-13 -14 -33 -39 -45 -58 -13 -18 -28 -38 -33 -45 -6 -7 -32 -41 -58 -77 -26
-36 -51 -70 -57 -76 -5 -6 -35 -46 -65 -89 -30 -42 -64 -89 -76 -104 -12 -14
-159 -213 -328 -441 -168 -228 -312 -422 -319 -430 -6 -9 -25 -34 -41 -58 -16
-23 -33 -42 -37 -42 -5 0 -9 -6 -9 -12 0 -7 -11 -26 -25 -43 -36 -44 -38 -47
-65 -85 -13 -19 -28 -39 -32 -45 -19 -24 -64 -85 -78 -105 -8 -12 -23 -31 -32
-43 -20 -25 -146 -196 -168 -227 -8 -12 -23 -31 -32 -43 -18 -23 -167 -225
-196 -266 -9 -13 -24 -30 -32 -39 -13 -14 -15 -152 -16 -1114 0 -604 1 -1098
2 -1098 2 0 51 64 110 143 59 78 116 152 127 165 11 12 17 22 13 22 -4 0 0 8
9 17 10 9 78 98 152 197 75 100 146 195 159 211 12 17 101 136 198 265 96 129
181 242 189 250 7 8 37 49 67 90 30 41 59 80 65 87 5 7 16 19 23 27 6 8 12 20
12 26 0 5 3 10 8 10 4 0 18 17 32 38 14 20 28 39 31 42 3 3 19 23 35 45 16 23
35 47 42 55 7 8 44 58 82 110 38 52 73 100 77 105 5 6 29 37 53 70 25 33 50
66 57 72 6 7 21 28 33 48 12 19 26 35 31 35 5 0 9 4 9 10 0 5 30 49 68 98 37
49 76 101 87 116 11 15 28 37 37 49 28 35 30 38 88 117 30 41 59 81 65 87 15
18 39 50 97 128 28 39 55 72 60 73 4 2 8 10 8 18 0 8 5 14 10 14 6 0 10 6 10
14 0 8 8 21 18 28 16 12 42 46 67 87 6 9 16 23 23 31 20 23 45 56 67 86 11 15
50 67 88 116 37 49 67 93 67 98 0 5 6 13 13 17 16 11 107 131 107 142 0 5 4
11 8 13 4 2 38 44 76 93 37 50 76 101 86 115 11 14 30 39 42 55 12 17 25 32
28 35 3 3 14 18 24 35 21 33 23 35 64 85 15 19 59 78 97 130 39 52 74 100 80
106 5 7 19 24 30 40 11 15 30 40 43 55 12 15 22 31 22 36 0 5 8 16 18 24 9 9
24 26 32 39 8 12 20 28 25 34 6 6 48 63 95 126 91 123 92 124 118 157 9 12 26
33 36 48 11 14 28 36 38 47 10 12 18 24 18 28 0 3 8 15 18 26 9 10 35 44 57
74 22 30 50 66 62 80 13 14 23 28 23 32 0 3 6 13 13 20 7 7 37 47 67 88 30 41
62 84 72 95 9 11 57 74 105 140 48 66 90 122 93 125 3 3 23 30 45 60 22 30 46
61 53 69 7 8 21 26 30 40 9 14 22 33 29 41 61 76 183 243 183 251 0 5 3 9 8 9
4 0 23 23 42 50 19 27 37 50 40 50 3 0 5 -718 5 -1595 l0 -1595 -30 -1 c-16 0
-448 -1 -958 -1 l-928 -1 -54 -71 c-30 -39 -63 -82 -74 -96 -11 -14 -55 -72
-98 -130 -43 -58 -83 -111 -90 -118 -7 -7 -13 -17 -13 -20 0 -4 -10 -18 -23
-32 -12 -14 -34 -41 -47 -60 -14 -19 -30 -42 -37 -50 -7 -8 -73 -96 -147 -195
-75 -99 -139 -184 -144 -190 -4 -5 -19 -26 -32 -45 -14 -19 -30 -39 -36 -45
-6 -5 -57 -73 -115 -150 -57 -77 -107 -144 -112 -150 -4 -5 -21 -28 -38 -50
-16 -22 -36 -48 -44 -58 -14 -16 -12 -17 18 -17 17 -1 700 -2 1517 -3 l1485
-2 0 -675 c0 -371 3 -679 7 -685 4 -7 376 -10 1085 -10 l1078 1 1 4062 c1
2234 -1 4063 -5 4063 -20 4 -2321 3 -2321 -1z"/>
<path d="M10526 10963 c-1 -1 -27 -5 -57 -9 -29 -3 -57 -8 -60 -10 -8 -4 -137
-18 -176 -19 -18 0 -33 -3 -33 -6 0 -3 -6 -6 -12 -6 -32 0 -175 -17 -258 -29
-38 -6 -76 -10 -155 -19 -27 -2 -72 -7 -100 -10 -27 -3 -70 -8 -95 -10 -25 -3
-56 -7 -70 -9 -14 -3 -50 -7 -80 -10 -30 -4 -82 -9 -115 -12 -92 -9 -181 -19
-270 -30 -27 -3 -68 -7 -90 -9 -22 -2 -65 -7 -95 -10 -57 -7 -83 -10 -185 -19
-33 -3 -80 -8 -105 -11 -47 -6 -81 -9 -195 -20 -38 -4 -81 -9 -95 -10 -93 -11
-167 -18 -305 -30 -22 -2 -62 -6 -90 -9 -115 -12 -143 -15 -205 -21 -36 -4
-78 -8 -95 -10 -40 -4 -140 -14 -223 -20 -37 -3 -82 -8 -100 -10 -18 -3 -60
-7 -95 -10 -34 -3 -82 -7 -107 -10 -58 -7 -148 -15 -230 -21 -59 -4 -115 -10
-131 -13 -14 -2 -1168 -1166 -1431 -1442 -130 -138 -358 -377 -408 -429 -30
-32 -91 -97 -135 -145 -44 -48 -91 -100 -105 -114 -14 -14 -65 -71 -115 -125
-49 -55 -103 -114 -120 -132 -16 -17 -44 -49 -62 -70 -18 -22 -47 -55 -65 -75
-68 -74 -277 -323 -348 -414 -30 -38 -58 -74 -62 -80 -55 -69 -125 -177 -163
-251 -18 -34 -40 -73 -51 -86 -26 -32 -82 -65 -124 -73 -19 -3 -42 -7 -50 -9
-8 -1 -37 -7 -65 -11 -27 -5 -52 -10 -55 -10 -6 -2 -74 -15 -105 -22 -11 -2
-36 -6 -55 -9 -19 -3 -75 -14 -124 -25 -49 -10 -100 -19 -113 -19 -13 0 -23
-3 -23 -7 0 -5 -12 -8 -27 -9 -30 0 -75 -8 -145 -23 -37 -9 -85 -16 -163 -27
-11 -1 -20 -3 -20 -4 0 -1 -16 -3 -35 -6 -86 -10 -269 -74 -365 -127 -11 -6
-22 -12 -25 -13 -13 -3 -46 -18 -50 -23 -3 -3 -57 -32 -120 -64 -63 -31 -149
-76 -190 -99 -41 -22 -102 -55 -135 -73 -33 -18 -95 -53 -138 -78 -43 -26 -80
-47 -83 -47 -3 0 -124 -69 -359 -205 -55 -32 -118 -68 -140 -81 -22 -12 -85
-48 -140 -79 -168 -96 -189 -108 -210 -119 -11 -6 -21 -22 -22 -36 -3 -49 -13
-145 -19 -175 -3 -17 -7 -53 -9 -80 -2 -28 -4 -50 -5 -50 -3 0 -9 -43 -15
-105 -3 -36 -8 -74 -10 -85 -2 -11 -7 -47 -11 -80 -3 -33 -7 -71 -9 -85 -3
-22 -12 -102 -21 -180 -1 -14 -5 -45 -8 -70 -3 -25 -8 -67 -11 -95 -3 -27 -8
-67 -11 -87 -3 -20 -7 -54 -9 -75 -4 -55 -16 -126 -21 -135 -3 -5 0 -8 6 -8 7
0 8 -6 2 -17 -8 -17 -13 -52 -16 -115 0 -16 -3 -28 -6 -28 -3 0 -6 -19 -6 -43
-1 -23 -4 -71 -8 -107 -4 -36 -8 -89 -11 -117 -2 -29 -6 -65 -9 -80 -3 -16 -8
-48 -11 -73 -3 -25 -7 -54 -9 -65 -2 -11 -7 -40 -10 -65 -3 -25 -8 -56 -11
-70 -14 -71 -26 -187 -29 -271 -9 -274 224 -560 490 -602 10 -1 24 -6 31 -10
6 -4 14 -3 17 1 3 5 317 9 698 9 381 0 708 3 725 7 20 5 33 14 34 24 2 31 -2
67 -11 97 -11 35 -48 197 -55 240 -2 17 -7 44 -10 60 -3 17 -8 89 -10 162 -3
107 0 144 16 205 11 40 22 83 25 96 2 13 16 53 30 90 15 37 26 73 27 80 0 6 4
12 9 12 4 0 8 7 8 16 0 34 140 278 182 315 10 9 18 20 19 25 1 16 152 144 224
191 74 47 245 136 245 126 0 -3 6 -1 12 5 11 8 57 24 113 38 162 40 360 40
500 -2 28 -9 58 -20 67 -25 10 -5 23 -9 30 -9 15 0 146 -59 178 -81 14 -9 28
-16 32 -15 4 0 17 -7 28 -16 11 -10 23 -18 26 -18 15 0 99 -68 168 -136 174
-173 289 -389 342 -648 25 -124 25 -382 0 -501 -15 -72 -29 -122 -50 -191 -33
-105 -37 -131 -24 -159 23 -51 2 -50 939 -50 l874 0 5 1110 c4 893 8 1113 18
1125 7 8 58 76 113 150 55 74 107 145 117 157 9 12 24 31 32 43 8 12 33 46 55
76 121 161 164 220 245 329 48 66 94 127 102 135 7 9 31 41 52 73 22 31 43 57
48 57 4 0 8 4 8 10 0 5 7 18 15 27 8 10 49 65 92 123 42 58 81 110 85 115 17
20 63 83 78 105 14 21 24 33 63 79 9 12 17 25 17 29 0 5 8 17 18 28 9 10 34
42 54 69 21 28 41 55 46 60 4 6 33 44 63 85 29 41 59 82 66 90 7 8 40 53 75
100 34 47 66 90 70 95 35 43 148 196 148 200 0 3 7 13 16 23 8 9 34 42 57 72
23 30 45 58 50 61 5 3 7 8 5 10 -1 2 9 20 25 39 24 31 190 253 242 325 80 109
120 161 129 167 6 4 8 8 4 8 -5 0 0 8 10 18 9 10 24 29 32 41 16 24 121 165
143 191 6 8 20 28 30 43 10 16 25 36 32 45 8 9 53 69 99 132 47 63 89 120 94
125 4 6 34 46 67 90 158 215 259 350 264 355 3 3 22 28 41 55 19 28 38 52 42
53 4 2 8 8 8 13 0 5 7 17 16 27 9 9 75 96 146 192 71 96 138 186 148 200 10
14 76 102 145 195 69 94 134 181 145 195 10 14 41 54 67 90 26 36 51 67 55 68
5 2 8 10 8 17 0 7 4 15 8 17 4 2 44 51 87 110 44 60 93 125 108 145 15 21 40
56 55 78 15 22 35 46 45 53 9 7 15 18 12 23 -4 5 -2 9 3 9 5 0 26 24 46 54 21
30 45 64 54 74 9 11 24 30 32 42 8 12 25 34 37 48 13 15 23 30 23 34 0 4 14
22 30 40 37 40 38 56 4 54 -14 0 -27 -2 -28 -3z m-4080 -3103 c0 -316 -2 -581
-4 -588 -3 -10 -84 -12 -386 -11 -209 0 -395 0 -412 0 -24 -1 -36 -9 -57 -42
-15 -22 -27 -45 -27 -49 0 -5 -4 -10 -8 -12 -7 -3 -111 -152 -137 -196 -5 -9
-13 -19 -16 -22 -8 -7 -142 -208 -154 -231 -5 -10 -13 -19 -17 -19 -5 0 -8 -6
-8 -14 0 -8 -7 -17 -16 -20 -28 -11 -1034 -7 -1034 4 0 6 4 10 9 10 5 0 11 8
15 18 3 9 16 35 29 57 13 22 36 63 52 90 15 28 38 68 51 90 12 22 33 59 45 83
12 23 27 42 31 42 5 0 7 4 4 9 -3 5 2 19 12 32 9 13 22 33 28 44 37 69 50 92
63 108 8 9 10 17 5 17 -5 0 -4 4 2 8 5 4 39 59 74 122 35 63 66 117 70 120 3
3 14 24 25 47 11 24 23 43 28 43 4 0 7 5 7 11 0 5 25 54 56 107 31 53 68 117
82 142 14 25 48 86 77 135 28 50 55 97 59 105 4 8 12 24 19 35 7 11 30 52 52
90 22 39 50 88 63 110 12 22 29 54 38 70 l15 30 632 0 632 0 1 -575z"/>
<path d="M3308 4434 c-2 -1 -25 -4 -53 -7 -27 -3 -61 -8 -75 -11 -14 -3 -36
-7 -50 -9 -14 -2 -56 -18 -93 -35 -38 -18 -70 -32 -73 -32 -9 0 -90 -55 -139
-94 -71 -58 -146 -137 -182 -193 -9 -15 -20 -30 -24 -33 -6 -5 -89 -158 -88
-163 0 -1 -4 -15 -10 -30 -6 -16 -11 -34 -11 -41 0 -6 -5 -17 -12 -24 -7 -7
-9 -12 -5 -12 3 0 2 -11 -3 -25 -21 -56 -30 -223 -17 -335 8 -79 29 -174 46
-215 27 -64 107 -221 120 -235 9 -10 27 -32 41 -51 104 -138 304 -266 470
-303 14 -3 36 -8 50 -11 31 -7 180 -8 241 0 26 2 77 15 115 27 38 12 72 21 77
20 4 -1 7 2 7 8 0 6 3 9 8 8 17 -4 143 69 201 117 56 46 142 137 168 177 15
24 31 45 34 48 28 21 117 241 134 329 23 119 24 285 2 381 -2 8 -7 33 -12 55
-13 65 -101 265 -117 265 -4 0 -8 6 -8 13 0 31 -129 169 -223 239 -98 72 -182
112 -302 144 -55 14 -210 35 -217 28z m99 -339 c114 -13 252 -89 337 -185 46
-52 120 -187 132 -240 3 -14 8 -38 11 -55 4 -16 7 -71 6 -121 0 -111 -27 -210
-84 -306 -43 -74 -143 -181 -177 -192 -12 -4 -22 -11 -22 -15 0 -9 -110 -59
-145 -67 -102 -23 -255 -20 -290 6 -5 4 -22 10 -36 13 -34 9 -149 86 -192 130
-149 154 -212 409 -151 610 62 204 271 396 459 423 22 4 41 7 43 9 3 2 15 1
109 -10z"/>
</g>
</svg>
